<svg width="24" height="13" viewBox="0 0 24 13" fill="none" xmlns="http://www.w3.org/2000/svg">
<path d="M0 2.16667C0 0.971615 1.07625 0 2.4 0H9.6H11.4H12H21.6C22.9238 0 24 0.971615 24 2.16667V10.8333C24 12.0284 22.9238 13 21.6 13H12H11.4H9.6H2.4C1.07625 13 0 12.0284 0 10.8333V2.16667ZM12 2.16667V10.8333H21.6V2.16667H12ZM6.68625 3.78828C6.56625 3.54453 6.29625 3.38542 6 3.38542C5.70375 3.38542 5.43375 3.54453 5.31375 3.78828L2.91375 8.66328C2.745 9.00521 2.9175 9.40469 3.29625 9.55703C3.675 9.70938 4.1175 9.55365 4.28625 9.21172L4.62 8.53125H7.38L7.71375 9.21172C7.8825 9.55365 8.325 9.70599 8.70375 9.55703C9.0825 9.40807 9.25125 9.00521 9.08625 8.66328L6.68625 3.78828ZM6 5.72813L6.7125 7.17708H5.2875L6 5.72813ZM16.8 3.38542C17.2125 3.38542 17.55 3.6901 17.55 4.0625V4.19792H19.2H19.8C20.2125 4.19792 20.55 4.5026 20.55 4.875C20.55 5.2474 20.2125 5.55208 19.8 5.55208H19.725L19.665 5.70443C19.3313 6.53047 18.825 7.28203 18.18 7.91849C18.2138 7.9388 18.2475 7.95573 18.2812 7.97266L18.99 8.35521C19.3463 8.54818 19.4587 8.96458 19.2488 9.28281C19.0387 9.60104 18.5737 9.70599 18.2213 9.51641L17.5125 9.13385C17.3438 9.04245 17.1825 8.94766 17.0212 8.84609C16.6238 9.1 16.2 9.32005 15.7463 9.50287L15.6112 9.55703C15.2325 9.70938 14.79 9.55365 14.6213 9.21172C14.4525 8.86979 14.625 8.47031 15.0038 8.31797L15.1388 8.2638C15.3788 8.16563 15.6113 8.05729 15.8325 7.93203L15.375 7.51901C15.0825 7.25495 15.0825 6.825 15.375 6.56094C15.6675 6.29688 16.1437 6.29688 16.4363 6.56094L16.9838 7.05521L17.0025 7.07214C17.4675 6.62865 17.8463 6.11406 18.12 5.5487H16.8H14.1C13.6875 5.5487 13.35 5.24401 13.35 4.87161C13.35 4.49922 13.6875 4.19453 14.1 4.19453H16.05V4.05911C16.05 3.68672 16.3875 3.38203 16.8 3.38203V3.38542Z" fill="white"/>
</svg>
