<svg width="32" height="28" viewBox="0 0 32 28" fill="none" xmlns="http://www.w3.org/2000/svg">
<path d="M7.51831 0.632178C8.94142 0.394617 10.3768 0.516443 11.7083 0.955017L14.7499 5.67577L10.1447 10.2686C10.053 10.36 9.99808 10.4879 10.0042 10.6219C10.0103 10.7559 10.0653 10.8777 10.163 10.9691L17.0037 17.3041C17.1809 17.4685 17.4557 17.4807 17.645 17.3223C17.8344 17.164 17.8771 16.8959 17.7489 16.6888L14.0598 10.7133L19.5995 6.10825C19.7583 5.98034 19.8133 5.76105 19.7461 5.57222L18.3536 1.71034C20.0943 0.693091 22.1648 0.297156 24.1987 0.638269C28.4131 1.33268 31.4976 4.96309 31.4976 9.22091V9.5742C31.4976 12.1021 30.447 14.5203 28.5902 16.2442L17.5534 26.5202C17.0953 26.9466 16.4907 27.1841 15.8616 27.1841C15.2325 27.1841 14.6278 26.9466 14.1697 26.5202L3.1329 16.2442C1.27613 14.5203 0.225586 12.1021 0.225586 9.5742V9.22091C0.225586 4.96309 3.31003 1.33268 7.51831 0.632178Z" fill="#6D6D6D"/>
</svg>
