<svg width="24" height="20" viewBox="0 0 24 20" fill="none" xmlns="http://www.w3.org/2000/svg">
<path d="M12 0.375C15.3667 0.375 18.0625 1.95625 20.025 3.83828C21.975 5.70312 23.2792 7.9375 23.8958 9.47148C24.0333 9.81094 24.0333 10.1891 23.8958 10.5285C23.2792 12.0625 21.975 14.2969 20.025 16.1617C18.0625 18.0437 15.3667 19.625 12 19.625C8.63334 19.625 5.9375 18.0437 3.975 16.1617C2.02501 14.2926 0.72084 12.0625 0.100008 10.5285C-0.0374928 10.1891 -0.0374928 9.81094 0.100008 9.47148C0.72084 7.9375 2.02501 5.70312 3.975 3.83828C5.9375 1.95625 8.63334 0.375 12 0.375ZM18 10C18 8.35897 17.3679 6.78516 16.2426 5.62478C15.1174 4.4644 13.5913 3.8125 12 3.8125C10.4087 3.8125 8.88258 4.4644 7.75736 5.62478C6.63215 6.78516 6.00001 8.35897 6.00001 10C6.00001 11.641 6.63215 13.2148 7.75736 14.3752C8.88258 15.5356 10.4087 16.1875 12 16.1875C13.5913 16.1875 15.1174 15.5356 16.2426 14.3752C17.3679 13.2148 18 11.641 18 10ZM12 7.25C12 8.7668 13.1958 10 14.6667 10C14.9625 10 15.2458 9.94844 15.5125 9.8582C15.7417 9.78086 16.0083 9.92695 16 10.1762C15.9875 10.4727 15.9458 10.7691 15.8667 11.0656C15.2958 13.2656 13.1 14.5719 10.9667 13.9832C8.83334 13.3945 7.56667 11.1301 8.1375 8.93008C8.6 7.14688 10.1292 5.94805 11.8292 5.875C12.0708 5.86641 12.2125 6.13711 12.1375 6.37773C12.05 6.65273 12 6.94492 12 7.25Z" fill="white"/>
</svg>
